<svg xmlns="http://www.w3.org/2000/svg" width="31.84" height="31.865" viewBox="0 0 31.84 31.865">
    <g id="Groupe_13137" data-name="Groupe 13137" transform="translate(-48.955 -111.035)">
        <rect id="Rectangle_19745" data-name="Rectangle 19745" width="31.84" height="31.84"
              transform="translate(48.955 111.035)" fill="#117599"/>
        <rect id="Rectangle_19746" data-name="Rectangle 19746" width="29.916" height="29.916"
              transform="translate(49.917 111.997)" fill="#005a88"/>
        <rect id="Rectangle_19747" data-name="Rectangle 19747" width="5.914" height="5.914"
              transform="translate(48.955 111.06)" fill="#117599"/>
        <rect id="Rectangle_19748" data-name="Rectangle 19748" width="8.722" height="8.722"
              transform="translate(72.073 134.178)" fill="#117599"/>
        <path id="Tracé_13671" data-name="Tracé 13671"
              d="M2.031-7.485V-6.05H4.512v1.107H2.031v1.435H4.789V-2.4H.864v-6.19H4.789v1.107ZM5.722-8.592H6.855v1.859l-.069.605h.069a1.285,1.285,0,0,1,.484-.458,1.6,1.6,0,0,1,.813-.19,1.834,1.834,0,0,1,.774.169,2.069,2.069,0,0,1,.648.467,2.217,2.217,0,0,1,.445.713,2.445,2.445,0,0,1,.164.908,2.445,2.445,0,0,1-.164.908,2.217,2.217,0,0,1-.445.713,2.069,2.069,0,0,1-.648.467,1.834,1.834,0,0,1-.774.169,1.6,1.6,0,0,1-.813-.19,1.285,1.285,0,0,1-.484-.458H6.786v.51H5.722Zm2.2,5.282A1.082,1.082,0,0,0,8.346-3.4,1.126,1.126,0,0,0,8.7-3.639a1.182,1.182,0,0,0,.251-.38,1.275,1.275,0,0,0,.1-.5,1.275,1.275,0,0,0-.1-.5A1.182,1.182,0,0,0,8.7-5.4a1.126,1.126,0,0,0-.359-.242,1.082,1.082,0,0,0-.428-.086,1.131,1.131,0,0,0-.428.082,1.069,1.069,0,0,0-.359.238,1.182,1.182,0,0,0-.251.38,1.3,1.3,0,0,0-.1.51,1.3,1.3,0,0,0,.1.51,1.182,1.182,0,0,0,.251.38,1.069,1.069,0,0,0,.359.238A1.131,1.131,0,0,0,7.918-3.31Zm5-3.467a2.357,2.357,0,0,1,.9.169,2.138,2.138,0,0,1,.709.467,2.128,2.128,0,0,1,.467.713,2.389,2.389,0,0,1,.169.908,2.389,2.389,0,0,1-.169.908,2.128,2.128,0,0,1-.467.713,2.138,2.138,0,0,1-.709.467,2.357,2.357,0,0,1-.9.169,2.357,2.357,0,0,1-.9-.169A2.138,2.138,0,0,1,11.3-2.9a2.128,2.128,0,0,1-.467-.713,2.389,2.389,0,0,1-.169-.908,2.389,2.389,0,0,1,.169-.908,2.128,2.128,0,0,1,.467-.713,2.138,2.138,0,0,1,.709-.467A2.357,2.357,0,0,1,12.915-6.777Zm0,3.467a1.109,1.109,0,0,0,.419-.082,1.069,1.069,0,0,0,.359-.238,1.127,1.127,0,0,0,.246-.38,1.352,1.352,0,0,0,.091-.51,1.352,1.352,0,0,0-.091-.51,1.127,1.127,0,0,0-.246-.38,1.069,1.069,0,0,0-.359-.238,1.109,1.109,0,0,0-.419-.082,1.1,1.1,0,0,0-.424.082,1.081,1.081,0,0,0-.354.238,1.127,1.127,0,0,0-.246.38,1.352,1.352,0,0,0-.091.51,1.352,1.352,0,0,0,.091.51,1.127,1.127,0,0,0,.246.38,1.081,1.081,0,0,0,.354.238A1.1,1.1,0,0,0,12.915-3.31Zm4.979-3.467a2.357,2.357,0,0,1,.9.169,2.138,2.138,0,0,1,.709.467,2.128,2.128,0,0,1,.467.713,2.389,2.389,0,0,1,.169.908,2.389,2.389,0,0,1-.169.908,2.128,2.128,0,0,1-.467.713,2.138,2.138,0,0,1-.709.467,2.357,2.357,0,0,1-.9.169,2.357,2.357,0,0,1-.9-.169,2.138,2.138,0,0,1-.709-.467,2.128,2.128,0,0,1-.467-.713,2.389,2.389,0,0,1-.169-.908,2.389,2.389,0,0,1,.169-.908,2.128,2.128,0,0,1,.467-.713,2.138,2.138,0,0,1,.709-.467A2.357,2.357,0,0,1,17.894-6.777Zm0,3.467a1.109,1.109,0,0,0,.419-.082,1.069,1.069,0,0,0,.359-.238,1.127,1.127,0,0,0,.246-.38,1.352,1.352,0,0,0,.091-.51,1.352,1.352,0,0,0-.091-.51,1.127,1.127,0,0,0-.246-.38,1.069,1.069,0,0,0-.359-.238,1.109,1.109,0,0,0-.419-.082,1.1,1.1,0,0,0-.424.082,1.081,1.081,0,0,0-.354.238,1.127,1.127,0,0,0-.246.38,1.353,1.353,0,0,0-.091.51,1.353,1.353,0,0,0,.091.51,1.127,1.127,0,0,0,.246.38,1.081,1.081,0,0,0,.354.238A1.1,1.1,0,0,0,17.894-3.31ZM21.2-5.67h-.743v-.968H21.2v-1.3h1.132v1.3h1.037v.968H22.337v1.693a1.229,1.229,0,0,0,.03.281.456.456,0,0,0,.117.218.429.429,0,0,0,.346.143.727.727,0,0,0,.233-.03.73.73,0,0,0,.164-.082l.32.994a1.867,1.867,0,0,1-.428.143,2.493,2.493,0,0,1-.506.048,1.543,1.543,0,0,1-.575-.1,1.223,1.223,0,0,1-.428-.278A1.508,1.508,0,0,1,21.2-3.773Z"
              transform="translate(52.894 131.846)" fill="#fff"/>
    </g>
</svg>
